<svg width="101" height="100" viewBox="0 0 101 100" fill="none" xmlns="http://www.w3.org/2000/svg">
<circle cx="50.002" cy="50" r="49.5" stroke="#253E5E"/>
<path d="M70.037 68.5163H31.1926C30.9541 68.5163 30.7496 68.3794 30.6133 68.2082C30.5111 68.0029 30.477 67.7633 30.6133 67.5579L31.0563 66.7707C31.0904 66.7023 31.1245 66.6681 31.1586 66.6339L33.3734 64.4092L34.2592 61.5C34.2933 61.3631 34.3956 61.2261 34.5319 61.1234L37.1896 59.4806L35.9289 55.6131C35.8608 55.3735 35.9289 55.0655 36.1333 54.8943L38.5526 52.8408L39.2 49.8632C39.2681 49.5893 39.4726 49.4182 39.7111 49.3498L44.1407 48.4599L44.4815 45.5507C44.4815 45.448 44.5155 45.3795 44.5496 45.3111L46.0148 42.7099L45.9808 39.3215C45.9808 39.1162 46.0829 38.9108 46.2533 38.7739L49.3882 36.3781C49.5586 36.2412 49.797 36.207 50.0015 36.2754C50.2059 36.3439 50.3763 36.515 50.4104 36.7204L51.3985 40.1088L52.6934 42.7784L55.2489 44.8319C55.3511 44.9004 55.4192 45.0373 55.4533 45.1742L57.2252 51.2322L59.2697 53.4569L62.3704 55.305C62.4385 55.3393 62.5067 55.4077 62.5407 55.442L64.5852 57.9405C64.6874 58.0774 64.7556 58.2142 64.7215 58.3854L64.6533 61.8422L65.8459 64.3065L69.4578 65.7439C69.5941 65.8124 69.7304 65.9151 69.7985 66.052L70.5822 67.5579C70.6845 67.7633 70.6844 68.0029 70.5481 68.2082C70.48 68.3794 70.2755 68.5163 70.037 68.5163ZM32.4193 67.1815H68.9467L68.7763 66.8392L65.1644 65.4017C64.994 65.3332 64.8918 65.2306 64.8237 65.0594L63.4607 62.2187C63.4266 62.116 63.3926 62.0133 63.3926 61.9107L63.4607 58.5565L61.6207 56.3661L58.52 54.5521C58.4518 54.5179 58.4178 54.4836 58.3837 54.4152L56.203 51.9851C56.1349 51.9167 56.1007 51.814 56.0667 51.7113L54.2948 45.7218L51.7734 43.7025C51.7052 43.634 51.6371 43.5656 51.603 43.4629L50.2059 40.6222C50.1719 40.5879 50.1718 40.5537 50.1718 40.5195L49.4563 37.9867L47.3437 39.5954L47.3778 42.8126C47.3778 42.9153 47.3437 43.0522 47.2755 43.1548L45.7763 45.7903L45.4015 49.0417C45.3674 49.3155 45.1629 49.5551 44.8903 49.6235L40.4267 50.5134L39.8133 53.2857C39.7793 53.4226 39.7111 53.5595 39.6089 53.6622L37.36 55.5789L38.6549 59.5148C38.7571 59.8229 38.6208 60.1309 38.3822 60.3021L35.4859 62.0818L34.6 64.9226C34.5659 65.0252 34.4978 65.1279 34.4296 65.1963L32.4193 67.1815Z" fill="#253E5E"/>
<path d="M49.7998 38.2603C49.425 38.2603 49.1523 37.9523 49.1523 37.61V27.6503C49.1523 27.2738 49.4591 27 49.7998 27C50.1746 27 50.4472 27.308 50.4472 27.6503V37.61C50.4472 37.9523 50.1405 38.2603 49.7998 38.2603Z" fill="#20AEEA"/>
<path d="M52.3523 34.7014C51.3641 34.7014 50.376 34.4276 49.3878 33.7089C49.2175 33.572 49.1152 33.4009 49.1152 33.1613V29.1226C49.1152 28.883 49.2515 28.6435 49.49 28.5408C49.7285 28.4381 49.967 28.4381 50.1715 28.6092C51.9093 29.9098 53.647 29.2595 55.6233 28.5066C57.6678 27.7536 60.019 26.8979 62.336 28.6092C62.5404 28.7461 62.6426 28.9857 62.6085 29.2253C62.5744 29.4649 62.4382 29.6702 62.1996 29.7729C61.8589 29.9098 61.4841 30.1494 61.0752 30.4916C61.5863 31.2104 62.0634 32.0318 62.5404 32.8875C62.6767 33.1613 62.6086 33.5035 62.4041 33.7089C62.1656 33.9142 61.8248 33.9142 61.5863 33.7431C59.8485 32.4425 58.1107 33.0928 56.1344 33.8458C54.9078 34.2223 53.6471 34.7014 52.3523 34.7014ZM50.4441 32.819C52.0796 33.8458 53.7493 33.2639 55.6233 32.5452C57.0885 31.9976 58.69 31.4158 60.3256 31.7238C60.0871 31.3816 59.8826 31.0393 59.6441 30.7312C59.4396 30.4574 59.4737 30.081 59.7122 29.8414C60.0189 29.5676 60.2915 29.2937 60.5982 29.0884C59.1671 28.5408 57.7019 29.0884 56.1004 29.7045C54.3626 30.3548 52.4204 31.0735 50.4441 30.2179V32.819Z" fill="#20AEEA"/>
<path d="M52.9652 68.5164C52.863 68.5164 52.7948 68.4822 52.6926 68.448L46.8659 65.9152C46.6274 65.8126 46.457 65.573 46.457 65.2992C46.457 65.0254 46.6274 64.7858 46.8659 64.6831L51.7044 62.5953L49.4556 60.7471C49.3533 60.6787 49.2852 60.5418 49.2511 60.4391L48.5356 58.0091L46.9 55.579C46.7978 55.4079 46.7637 55.2025 46.7978 55.0314C46.8659 54.8603 46.9682 54.6891 47.1726 54.6207L51.6022 52.6014L48.706 50.7532C48.5015 50.6163 48.3992 50.4109 48.3992 50.1713L48.5356 47.6386L48.8422 45.2086L48.3311 43.3946C48.3311 43.3604 48.297 43.2919 48.297 43.2577L48.1607 40.8961C48.1607 40.8276 48.1608 40.725 48.1948 40.6565L49.2171 37.4051C49.3193 37.0628 49.6941 36.8574 50.0348 36.9601C50.3755 37.0628 50.58 37.4393 50.4778 37.7815L49.4896 40.8961L49.6259 43.0523L50.1711 44.9348C50.2051 45.0032 50.2052 45.1059 50.2052 45.2086L49.8985 47.7413L49.7963 49.8291L53.4081 52.1564C53.6126 52.2933 53.7148 52.5329 53.7148 52.7725C53.7148 53.0121 53.5444 53.2174 53.34 53.3201L48.5356 55.5106L49.7963 57.393C49.8304 57.4615 49.8645 57.4957 49.8985 57.5641L50.6141 59.8915L53.5445 62.2873C53.7148 62.4242 53.817 62.6638 53.783 62.9034C53.7489 63.143 53.6126 63.3141 53.3741 63.4168L48.9445 65.3334L53.3741 67.2501C53.7148 67.387 53.8511 67.7977 53.7148 68.1057C53.4763 68.3453 53.2378 68.5164 52.9652 68.5164Z" fill="#20AEEA"/>
<path d="M72.3546 73H27.6494C27.2746 73 27.002 72.692 27.002 72.3497V67.8661C27.002 67.4896 27.3087 67.2158 27.6494 67.2158H72.3546C72.7294 67.2158 73.002 67.5239 73.002 67.8661V72.3497C73.002 72.692 72.6953 73 72.3546 73ZM28.2968 71.6652H71.6731V68.5164H28.2968V71.6652Z" fill="#253E5E"/>
</svg>
