<svg width="100" height="100" viewBox="0 0 100 100" fill="none" xmlns="http://www.w3.org/2000/svg">
<circle cx="50" cy="50" r="49.5" stroke="#253E5E"/>
<path d="M41.9868 46.3145C41.8257 46.3145 41.6579 46.2542 41.5303 46.1337L40.5301 45.2093C40.2615 44.9548 40.2414 44.5328 40.4965 44.2649C40.7516 43.9903 41.1745 43.9769 41.4431 44.2314L42.4433 45.1557C42.7119 45.4103 42.732 45.8322 42.4769 46.1002C42.3426 46.2408 42.1681 46.3145 41.9868 46.3145Z" fill="#253E5E"/>
<path d="M41.1085 50.7949C40.9339 50.7949 40.7594 50.7279 40.6251 50.5872L37.913 47.774C37.6579 47.5061 37.6646 47.0841 37.9331 46.8296C38.2017 46.575 38.6246 46.5817 38.8797 46.8497L41.5918 49.6629C41.8469 49.9308 41.8402 50.3528 41.5717 50.6073C41.4441 50.7279 41.2696 50.7949 41.1085 50.7949Z" fill="#253E5E"/>
<path d="M38.3905 53.1724C38.216 53.1724 38.0482 53.1054 37.9139 52.9781L31.4222 46.4876C29.9654 45.0341 29.1531 43.1185 29.0994 41.0621L27.2466 39.5484C26.9579 39.3139 26.9176 38.892 27.1526 38.6039C27.3875 38.3159 27.8105 38.2757 28.0992 38.5102L30.2004 40.2249C30.3615 40.3521 30.4488 40.5464 30.4488 40.754C30.4219 42.5692 31.1067 44.2706 32.3822 45.5432L38.8739 52.0337C39.1357 52.2949 39.1357 52.7169 38.8739 52.9781C38.7329 53.1054 38.5651 53.1724 38.3905 53.1724Z" fill="#253E5E"/>
<path d="M47.8211 41.8326C47.6466 41.8326 47.4787 41.7656 47.3445 41.6384L43.8737 38.1687C43.6723 37.9678 43.6186 37.6597 43.7462 37.4052C43.8737 37.1506 44.1423 37.0033 44.4309 37.0301L48.0091 37.4587C48.2843 37.4922 48.5528 37.4119 48.7744 37.2444C48.9959 37.0702 49.1302 36.8224 49.1638 36.5478L49.1906 36.3067C49.2577 35.7373 48.8482 35.2149 48.2776 35.1479L39.0201 34.0427C38.0064 33.8953 37.0128 33.9221 36.0595 34.1164C35.8514 34.1566 35.6299 34.0963 35.4755 33.9556L33.6025 32.2476C33.3272 31.9998 33.3071 31.5778 33.5622 31.3032C33.8106 31.0285 34.2402 31.0084 34.5088 31.263L36.1401 32.75C37.1404 32.5825 38.1742 32.5758 39.2215 32.7299L48.4454 33.8284C49.7478 33.9824 50.6876 35.168 50.5332 36.4741L50.5064 36.7152C50.4326 37.3449 50.117 37.9075 49.6135 38.3027C49.11 38.6979 48.4857 38.872 47.8614 38.7984L46.2032 38.6041L48.3045 40.7073C48.5663 40.9686 48.5663 41.3905 48.3045 41.6518C48.1635 41.7656 47.9889 41.8326 47.8211 41.8326Z" fill="#253E5E"/>
<path d="M44.2509 43.3871C44.0898 43.3871 43.9354 43.3335 43.8078 43.2197L43.1365 42.6302C42.8612 42.3824 42.8344 41.9604 43.0828 41.6858C43.3312 41.4112 43.7541 41.3844 44.0293 41.6322L44.7007 42.2216C44.9759 42.4695 45.0028 42.8914 44.7544 43.1661C44.6201 43.3067 44.4389 43.3871 44.2509 43.3871Z" fill="#253E5E"/>
<path d="M58.1405 46.0659C57.9659 46.0659 57.7914 45.9989 57.6571 45.8582C57.402 45.5903 57.4087 45.1683 57.6773 44.9138L58.3822 44.2373C58.6507 43.9827 59.0736 43.9894 59.3287 44.2574C59.5838 44.5253 59.5771 44.9473 59.3086 45.2018L58.6037 45.8783C58.4761 45.9989 58.3083 46.0659 58.1405 46.0659Z" fill="#253E5E"/>
<path d="M60.7388 48.6177C60.5575 48.6177 60.3763 48.544 60.242 48.3966C59.9936 48.122 60.0138 47.7 60.289 47.4522L60.9872 46.8159C61.2624 46.568 61.6854 46.5881 61.9338 46.8627C62.1822 47.1374 62.162 47.5594 61.8868 47.8072L61.1886 48.4435C61.0678 48.5574 60.9066 48.6177 60.7388 48.6177Z" fill="#253E5E"/>
<path d="M61.4464 53.1723C61.2719 53.1723 61.1041 53.1053 60.9698 52.978C60.708 52.7168 60.708 52.2948 60.9698 52.0336L67.4615 45.5431C68.737 44.2704 69.4218 42.5691 69.3949 40.7539C69.3949 40.5798 69.4553 40.4123 69.5762 40.2851L71.8452 37.9005C72.1003 37.6326 72.5233 37.6192 72.7918 37.8737C73.0603 38.1283 73.0738 38.5502 72.8187 38.8182L70.7376 41.0085C70.6973 43.0849 69.885 45.0206 68.4148 46.4875L61.9231 52.978C61.7888 53.1053 61.6143 53.1723 61.4464 53.1723Z" fill="#253E5E"/>
<path d="M52.1399 41.712C51.9653 41.712 51.7975 41.645 51.6632 41.5177C51.4014 41.2565 51.4014 40.8345 51.6632 40.5733L53.6436 38.5974L51.9854 38.7916C51.3544 38.8653 50.7301 38.6911 50.2333 38.2959C49.7298 37.9008 49.4143 37.3381 49.3404 36.7085L49.3136 36.4674C49.1592 35.1612 50.0923 33.9756 51.4014 33.8216L60.565 32.7298C61.6592 32.569 62.6931 32.5757 63.6866 32.7365L65.2307 31.1959C65.4925 30.9347 65.9154 30.9347 66.1772 31.1959C66.439 31.4571 66.439 31.8791 66.1772 32.1404L64.3848 33.9355C64.2237 34.0962 63.9954 34.1632 63.7739 34.1163C62.8273 33.9221 61.827 33.902 60.8133 34.0426L60.7194 34.056L51.5558 35.1478C50.9852 35.2148 50.5757 35.7373 50.6428 36.3066L50.6696 36.5477C50.7032 36.8224 50.8442 37.0702 51.059 37.2443C51.2806 37.4185 51.5491 37.4922 51.8243 37.4587L55.4025 37.03C55.6911 36.9965 55.9597 37.1439 56.0872 37.4051C56.2148 37.6663 56.1611 37.9677 55.9597 38.1687L52.6165 41.511C52.4889 41.645 52.3144 41.712 52.1399 41.712Z" fill="#253E5E"/>
<path d="M55.4957 43.5942C55.3278 43.5942 55.1667 43.5339 55.0392 43.4134C54.7706 43.1588 54.7572 42.7368 55.0056 42.4689L55.7575 41.6651C56.0126 41.3972 56.4355 41.3838 56.704 41.6317C56.9726 41.8862 56.986 42.3082 56.7376 42.5761L55.9857 43.3799C55.8582 43.5205 55.6769 43.5942 55.4957 43.5942Z" fill="#253E5E"/>
<path d="M58.857 55.5441C58.4878 55.5441 58.1857 55.2493 58.1857 54.8809L58.1521 49.3416C58.1454 48.6852 57.6218 48.156 56.984 48.1493H56.9773C56.6819 48.1493 56.4 48.2632 56.1851 48.4775C55.9636 48.6986 55.8428 48.9933 55.8428 49.3081L55.8763 54.8475C55.8763 55.2159 55.5809 55.5173 55.2117 55.524C54.8089 55.5173 54.5404 55.2292 54.5337 54.8609L54.5001 49.3215C54.4934 48.645 54.7552 48.0087 55.2319 47.5331C55.7018 47.0642 56.3328 46.803 56.984 46.8097C58.3535 46.8164 59.4813 47.9484 59.4881 49.3349L59.5216 54.8742C59.5351 55.2426 59.2329 55.5441 58.857 55.5441C58.8637 55.5441 58.857 55.5441 58.857 55.5441Z" fill="#20AEEA"/>
<path d="M55.2131 55.5232C54.8439 55.5232 54.5418 55.2284 54.5418 54.86L54.4881 46.5544C54.4814 45.8979 53.9577 45.3688 53.32 45.3621H53.3133C53.0179 45.3621 52.7359 45.476 52.5211 45.6903C52.2996 45.9113 52.1787 46.2061 52.1787 46.5209L52.2324 54.8265C52.2324 55.1949 51.937 55.4964 51.5678 55.5031C51.5678 55.5031 51.5678 55.5031 51.5611 55.5031C51.1919 55.5031 50.8898 55.2083 50.8898 54.8399L50.8361 46.5343C50.8294 45.8577 51.0912 45.2214 51.5678 44.7459C52.0377 44.277 52.6554 44.0225 53.3065 44.0225C53.3132 44.0225 53.3132 44.0225 53.32 44.0225C54.6895 44.0292 55.8173 45.1611 55.824 46.5477L55.8777 54.8533C55.8844 55.215 55.589 55.5232 55.2131 55.5232Z" fill="#20AEEA"/>
<path d="M51.5596 55.4965C51.1904 55.4965 50.8883 55.2018 50.8883 54.8334L50.8279 44.679C50.8212 44.0226 50.2976 43.4934 49.6598 43.4867H49.6531C49.3577 43.4867 49.0758 43.6006 48.8609 43.8149C48.6394 44.036 48.5186 44.3307 48.5186 44.6455L48.579 54.7999C48.579 55.1683 48.2836 55.4697 47.9144 55.4764C47.9144 55.4764 47.9144 55.4764 47.9077 55.4764C47.5384 55.4764 47.2363 55.1817 47.2363 54.8133L47.1759 44.6589C47.1692 43.9824 47.431 43.3461 47.9077 42.8705C48.3776 42.4016 48.9818 42.1404 49.6598 42.1471C51.0293 42.1538 52.1571 43.2858 52.1638 44.6723L52.2243 54.8267C52.2377 55.1951 51.9356 55.4965 51.5596 55.4965C51.5664 55.4965 51.5664 55.4965 51.5596 55.4965Z" fill="#20AEEA"/>
<path d="M56.6752 68.9999H56.6685C56.2993 68.9932 56.0039 68.6918 56.0039 68.3234L56.0442 65.6508C56.0442 65.4767 56.118 65.3092 56.2456 65.182C57.5345 63.9227 58.2327 62.2281 58.226 60.4129L58.1723 51.1829C58.1723 50.8145 58.4677 50.513 58.8369 50.5063C58.8369 50.5063 58.8369 50.5063 58.8436 50.5063C59.2128 50.5063 59.5149 50.8011 59.5149 51.1695L59.5686 60.3995C59.5821 62.4826 58.81 64.4318 57.3868 65.9321L57.3533 68.3368C57.3398 68.7119 57.0445 68.9999 56.6752 68.9999Z" fill="#20AEEA"/>
<path d="M47.2293 69C47.2226 69 47.2226 69 47.2159 69C46.8467 68.9933 46.5513 68.6852 46.558 68.3168L46.5916 66.7494C45.7793 66.1533 45.0542 65.4299 44.4232 64.5793L38.67 57.1979C37.8577 56.1597 38.0322 54.6526 39.0526 53.8421L39.2406 53.6881C39.7307 53.2996 40.3483 53.1254 40.9793 53.1991C41.6171 53.2728 42.1877 53.5943 42.5838 54.1034L43.6042 55.4162L43.5505 46.4742C43.5438 45.7977 43.8056 45.1614 44.2822 44.6858C44.7454 44.2236 45.3631 43.9624 46.021 43.9624C46.0277 43.9624 46.0344 43.9624 46.0344 43.9624C47.4039 43.9691 48.525 45.1011 48.5384 46.4876L48.5921 52.7838C48.5921 53.1522 48.2967 53.4537 47.9275 53.4604C47.9275 53.4604 47.9275 53.4604 47.9208 53.4604C47.5516 53.4604 47.2495 53.1656 47.2495 52.7972L47.1958 46.501C47.1891 45.8446 46.6654 45.3087 46.0277 45.3087C45.7323 45.3154 45.4436 45.4226 45.2288 45.6369C45.0073 45.858 44.8864 46.1527 44.8864 46.4675L44.9536 57.3855C44.9536 57.6735 44.7723 57.928 44.5038 58.0218C44.2285 58.1156 43.9331 58.0285 43.7519 57.8007L41.5164 54.9339C41.3418 54.7129 41.0934 54.5722 40.8115 54.5388C40.5429 54.5053 40.2811 54.5789 40.073 54.7464L39.8851 54.9005C39.4353 55.2555 39.3681 55.9186 39.7239 56.3807L45.4973 63.7889C46.1149 64.6194 46.8333 65.316 47.6456 65.8586C47.8335 65.9859 47.9477 66.2002 47.9409 66.4279L47.9007 68.3503C47.8939 68.712 47.5918 69 47.2293 69Z" fill="#20AEEA"/>
</svg>
