<svg width="101" height="100" viewBox="0 0 101 100" fill="none" xmlns="http://www.w3.org/2000/svg">
<circle cx="50.002" cy="50" r="49.5" stroke="#253E5E"/>
<path d="M59.6808 60.6281C59.3497 60.6281 59.0705 60.3788 59.0381 60.0377C58.9861 59.5326 58.8952 59.034 58.7524 58.5617C57.9019 55.6097 55.5581 53.7597 52.6429 53.7335L48.7474 53.7007C47.0399 53.681 45.5401 54.278 44.3715 55.4063C43.4366 56.305 42.7678 57.5121 42.4367 58.8963C42.3523 59.2505 42.0017 59.467 41.6511 59.3751C41.3005 59.2899 41.0863 58.9356 41.1772 58.5814C41.5667 56.9545 42.3653 55.5309 43.482 54.4551C44.8844 53.1037 46.6828 52.3887 48.6955 52.3887C48.7215 52.3887 48.7409 52.3887 48.7669 52.3887L52.6624 52.4215C56.1749 52.4477 58.9926 54.665 60.0055 58.1943C60.1678 58.7454 60.2781 59.3227 60.3366 59.9065C60.3755 60.2673 60.1093 60.5888 59.7587 60.6281C59.7263 60.6281 59.7003 60.6281 59.6808 60.6281Z" fill="#20AEEA"/>
<path d="M50.7616 51.0894C50.7487 51.0894 50.7357 51.0894 50.7227 51.0894C49.3268 51.0763 48.1581 50.5186 47.3401 49.469C46.6064 48.5309 46.2104 47.2255 46.2169 45.802C46.2299 44.3784 46.6454 43.0795 47.392 42.1545C48.2166 41.1312 49.3787 40.5933 50.7551 40.5933C50.7681 40.5933 50.7811 40.5933 50.8006 40.5933C53.521 40.6129 55.3259 42.7384 55.3064 45.8807C55.2804 49.0033 53.456 51.0894 50.7616 51.0894ZM50.7616 41.9053C49.7878 41.9053 48.9697 42.2792 48.4049 42.9877C47.84 43.6831 47.5284 44.6868 47.5219 45.8151C47.5154 46.9434 47.814 47.9537 48.3659 48.6556C48.9307 49.3772 49.7553 49.7642 50.7422 49.7774C50.7551 49.7774 50.7616 49.7774 50.7746 49.7774C53.1444 49.7774 54.0079 47.6716 54.0209 45.8676C54.0339 44.0504 53.2028 41.925 50.8071 41.9053C50.7811 41.9053 50.7746 41.9053 50.7616 41.9053Z" fill="#20AEEA"/>
<path d="M47.6169 72.9999C43.2604 72.9999 39.4233 72.2849 37.2548 71.6354C30.7688 69.7527 28.029 70.8679 28.003 70.881C27.6784 71.0253 27.2888 70.881 27.146 70.553C26.9967 70.225 27.146 69.8314 27.4706 69.6871C27.594 69.628 30.5675 68.3357 37.6184 70.3824C42.78 71.924 57.8556 73.9183 65.6012 64.7998C65.6077 64.7932 65.6207 64.7801 65.6271 64.7736C65.361 64.4784 64.1014 64.0782 62.1731 64.8851C61.5044 65.1147 60.8941 65.4361 60.2513 65.7773C58.5568 66.676 56.622 67.6862 53.2978 67.4566C52.9408 67.4304 52.6681 67.1155 52.694 66.7547C52.72 66.3939 53.0317 66.1315 53.3887 66.1446C56.3558 66.3545 58.0309 65.4689 59.654 64.6096C60.3422 64.2422 60.998 63.9011 61.7251 63.6518C64.1663 62.6284 66.1595 63.1335 66.7763 64.1307C67.1009 64.6489 67.0165 65.2524 66.5686 65.6788C61.6602 71.4189 54.077 72.9933 47.6169 72.9999Z" fill="#253E5E"/>
<path d="M47.559 68.5198C44.488 68.5198 42.1118 67.9031 40.4691 66.6633C40.1835 66.4468 40.1185 66.0335 40.3328 65.7449C40.5471 65.4562 40.9561 65.3906 41.2418 65.6071C43.222 67.0897 46.7085 67.5489 51.3246 66.9257C52.2141 66.8076 52.7855 66.4796 52.9802 65.981C53.1555 65.5284 52.9932 65.0167 52.766 64.7412C52.6491 64.5903 52.5063 64.505 52.4219 64.5247C52.3115 64.5444 52.1881 64.5378 51.909 64.564C50.3702 64.7018 46.7799 65.0167 45.4554 63.0749C40.9496 57.7088 37.2878 58.2992 35.7231 58.5485L35.6063 58.5681C34.5934 58.7256 33.9896 58.8699 33.4053 59.0077C32.2431 59.2832 31.2368 59.5193 27.6984 59.7752C27.3413 59.808 27.0296 59.5259 27.0037 59.1651C26.9777 58.8043 27.2504 58.4894 27.6075 58.4632C31.0485 58.2139 32.0029 57.9909 33.1131 57.7285C33.691 57.5907 34.3467 57.4398 35.405 57.2693L35.5154 57.2496C37.145 56.9872 41.482 56.2852 46.4682 62.2484C46.4812 62.268 46.5007 62.2877 46.5137 62.3074C47.3967 63.6456 50.7078 63.3504 51.7921 63.252C51.9869 63.2323 52.1427 63.2192 52.2466 63.2192C52.7919 63.1405 53.3568 63.3963 53.7723 63.908C54.3566 64.6231 54.519 65.6268 54.1943 66.4665C53.9801 67.0175 53.3438 67.9818 51.5064 68.2311C50.0781 68.4279 48.7666 68.5198 47.559 68.5198Z" fill="#253E5E"/>
<path d="M53.7121 65.7777C53.4654 65.7777 53.2251 65.6333 53.1148 65.3841C52.9719 65.0561 53.1213 64.6625 53.4459 64.5181L59.8865 61.6579C60.8409 61.2381 61.8667 61.1725 62.6393 61.4874C63.1522 61.6907 63.5223 62.045 63.717 62.5042C63.9248 62.9962 63.8988 63.5669 63.6456 64.118C63.4963 64.446 63.1068 64.5903 62.7821 64.4394C62.4575 64.2885 62.3147 63.8949 62.464 63.5669C62.5354 63.4161 62.6003 63.1995 62.5224 63.0159C62.4705 62.8847 62.3471 62.7797 62.1588 62.7076C61.7109 62.5304 61.0356 62.5895 60.4059 62.865L53.9653 65.7252C53.8874 65.758 53.7965 65.7777 53.7121 65.7777Z" fill="#253E5E"/>
<path d="M56.3297 64.5642C56.1868 64.5642 56.044 64.5183 55.9206 64.4199C55.6415 64.1903 55.596 63.7771 55.8233 63.495C56.0894 63.1604 56.1868 62.8324 56.0894 62.6028C56.031 62.4716 55.9141 62.3666 55.7259 62.2945C55.2779 62.1173 54.6027 62.1698 53.9729 62.4519L49.4541 64.4396C49.123 64.5839 48.7399 64.433 48.5971 64.0985C48.4542 63.7639 48.6036 63.3769 48.9347 63.2326L53.4535 61.2448C54.4014 60.825 55.4337 60.7594 56.2063 61.0743C56.7192 61.2777 57.0893 61.6319 57.2841 62.0911C57.5762 62.7799 57.4074 63.5934 56.8296 64.3215C56.7062 64.479 56.5179 64.5642 56.3297 64.5642Z" fill="#253E5E"/>
<path d="M35.7134 37.9039C34.5123 37.9039 33.6098 37.4775 33.2333 36.8674C32.9087 36.3426 32.9931 35.7391 33.441 35.3193C41.6476 25.7087 57.3725 27.762 62.7483 29.3627C69.2538 31.2454 71.9741 30.1302 72.0066 30.1171C72.3312 29.9793 72.7143 30.1237 72.8571 30.4582C73 30.7928 72.8571 31.1733 72.5325 31.3176C72.4091 31.3701 69.4356 32.669 62.3847 30.6222C57.2231 29.0806 42.1475 27.0864 34.4019 36.2049C34.3954 36.2114 34.3825 36.2245 34.376 36.2311C34.6422 36.5263 35.9017 36.9265 37.83 36.1196C38.4987 35.89 39.109 35.5685 39.7518 35.2274C41.4528 34.3287 43.3746 33.3184 46.7053 33.548C47.0623 33.5743 47.335 33.8892 47.3091 34.25C47.2831 34.6108 46.9714 34.8732 46.6144 34.86C43.6473 34.6501 41.9722 35.5357 40.3491 36.3885C39.6609 36.7559 39.0051 37.097 38.278 37.3463C37.343 37.7333 36.473 37.9039 35.7134 37.9039Z" fill="#253E5E"/>
<path d="M62.6769 43.9062C60.5279 43.9062 57.2102 43.1255 53.5419 38.7368C53.5289 38.7172 53.5095 38.6975 53.4965 38.6778C52.6135 37.3395 49.3023 37.6347 48.2181 37.7331C48.0168 37.7528 47.861 37.7659 47.7571 37.7659C47.2117 37.8447 46.6469 37.5888 46.2313 37.0771C45.647 36.3621 45.4847 35.3584 45.8093 34.5187C46.0236 33.9677 46.6599 33.0033 48.4972 32.7541C53.5289 32.0718 57.2427 32.6032 59.528 34.3219C59.8137 34.5384 59.8786 34.9517 59.6644 35.2403C59.4501 35.529 59.0476 35.5946 58.7554 35.3781C56.7752 33.8955 53.2887 33.4363 48.6725 34.0595C47.7831 34.1776 47.2117 34.5056 47.0169 35.0042C46.8416 35.4568 47.004 35.9685 47.2312 36.244C47.3481 36.3949 47.4909 36.4802 47.5753 36.4605C47.6857 36.4408 47.809 36.4474 48.0947 36.4211C49.6334 36.2834 53.2173 35.9685 54.5483 37.9168C59.0541 43.283 62.7158 42.6926 64.2805 42.4433L64.3974 42.4236C65.4102 42.2662 66.014 42.1219 66.5984 41.9841C67.7605 41.7086 68.7669 41.4724 72.3053 41.2165C72.6689 41.1903 72.974 41.4658 73 41.8266C73.026 42.1874 72.7533 42.5023 72.3962 42.5286C68.9552 42.7778 68.0008 43.0009 66.8905 43.2633C66.3127 43.4011 65.657 43.5519 64.5987 43.7225L64.4883 43.7422C64.0663 43.8012 63.443 43.9062 62.6769 43.9062Z" fill="#253E5E"/>
<path d="M38.4476 39.695C38.058 39.695 37.6879 39.6294 37.3633 39.4982C36.8504 39.2948 36.4803 38.9406 36.2856 38.4813C36.0778 37.9893 36.1038 37.4186 36.357 36.8676C36.5063 36.5396 36.8959 36.3952 37.2205 36.5461C37.5451 36.697 37.6879 37.0906 37.5386 37.4186C37.4737 37.5695 37.4023 37.786 37.4867 37.9697C37.5386 38.1009 37.662 38.2058 37.8503 38.278C38.3047 38.4617 38.9735 38.4026 39.6032 38.1205L46.0438 35.2603C46.3684 35.116 46.758 35.2669 46.9008 35.5949C47.0437 35.9229 46.8943 36.31 46.5697 36.4608L40.1291 39.321C39.5643 39.5769 38.9864 39.695 38.4476 39.695Z" fill="#253E5E"/>
<path d="M44.8768 40.1142C44.4873 40.1142 44.1172 40.0486 43.7926 39.9174C43.2796 39.7141 42.9096 39.3598 42.7148 38.9006C42.4226 38.2118 42.5914 37.3983 43.1693 36.6702C43.3965 36.3881 43.8055 36.3422 44.0847 36.5718C44.3639 36.8014 44.4093 37.2147 44.1821 37.4968C43.9159 37.8313 43.8185 38.1659 43.9159 38.3889C43.9679 38.5201 44.0912 38.6251 44.2795 38.6972C44.7275 38.8744 45.4027 38.8219 46.0325 38.5398L50.5513 36.5521C50.8824 36.4078 51.2654 36.5587 51.4083 36.8932C51.5511 37.2278 51.4018 37.6148 51.0707 37.7592L46.5519 39.7469C45.9935 39.9896 45.4157 40.1142 44.8768 40.1142Z" fill="#253E5E"/>
</svg>
