<svg width="101" height="100" viewBox="0 0 101 100" fill="none" xmlns="http://www.w3.org/2000/svg">
<circle cx="50.002" cy="50" r="49.5" stroke="#253E5E"/>
<path d="M35.3431 72.9998C35.193 72.9998 35.0498 72.9526 34.9202 72.8581C34.6269 72.6288 34.5724 72.2038 34.8043 71.9138L36.4752 69.8092C36.6252 69.6135 36.8707 69.5191 37.1162 69.5596C38.0028 69.6945 38.8826 69.4382 39.5373 68.8378L40.1307 68.3049C40.4103 68.0553 40.8399 68.0755 41.0923 68.3521C41.3446 68.6287 41.3242 69.0537 41.0445 69.3032L40.458 69.8294C39.6055 70.6119 38.4734 71.0031 37.314 70.9289L35.8818 72.7367C35.7454 72.9121 35.5408 72.9998 35.3431 72.9998Z" fill="#253E5E"/>
<path d="M64.662 72.9999C64.4574 72.9999 64.2596 72.9122 64.1232 72.7436L62.691 70.9357C61.518 71.0032 60.3995 70.6187 59.5402 69.8295L58.9605 69.3101C58.6809 69.0605 58.6604 68.6355 58.9128 68.3589C59.1651 68.0824 59.5948 68.0621 59.8744 68.3117L60.4609 68.8379C61.1224 69.4382 62.0022 69.7013 62.8888 69.5664C63.1343 69.5259 63.3798 69.6204 63.5299 69.816L65.2007 71.9206C65.4326 72.2107 65.3781 72.6356 65.0848 72.865C64.9552 72.9527 64.8052 72.9999 64.662 72.9999Z" fill="#253E5E"/>
<path d="M27.6909 67.893C27.575 67.893 27.459 67.866 27.3499 67.7985C27.0225 67.6096 26.9134 67.1982 27.1044 66.8744L27.4795 66.247L27.0566 62.6044C26.8384 60.7561 27.2749 59.1035 28.3388 57.6734L30.9713 53.5114C31.1691 53.1944 31.5919 53.0999 31.9125 53.2955C32.233 53.4912 32.3284 53.9094 32.1307 54.2265L29.4709 58.4357C28.5911 59.6162 28.2433 60.9585 28.4206 62.4493L28.8708 66.3145C28.8912 66.4562 28.8571 66.6046 28.7821 66.7327L28.2979 67.5557C28.1546 67.7716 27.9228 67.893 27.6909 67.893Z" fill="#253E5E"/>
<path d="M72.3063 67.893C72.0744 67.893 71.8425 67.7716 71.7198 67.5557L71.2356 66.7327C71.1605 66.6046 71.1265 66.4629 71.1469 66.3145L71.597 62.4493C71.7675 60.9518 71.4265 59.6162 70.574 58.4762L67.8802 54.2265C67.6824 53.9094 67.7779 53.4979 68.0984 53.2955C68.4189 53.0999 68.835 53.1944 69.0396 53.5114L71.6993 57.7206C72.736 59.1035 73.1656 60.7561 72.9474 62.6044L72.5246 66.247L72.8997 66.8744C73.0906 67.1982 72.9815 67.6096 72.6541 67.7985C72.545 67.8592 72.4222 67.893 72.3063 67.893Z" fill="#253E5E"/>
<path d="M56.9617 36.5332C56.9481 36.5332 56.9344 36.5332 56.9208 36.5332C56.5457 36.513 56.2592 36.1892 56.2797 35.8182C56.5252 31.7844 54.6634 31.5483 54.6429 31.5415C54.3019 31.5145 54.0291 31.2447 54.0087 30.9074L53.9132 29.4099C53.8927 29.0389 54.1723 28.7151 54.5543 28.6949C54.943 28.6747 55.2567 28.9512 55.2772 29.329L55.3386 30.3476C56.2593 30.7051 57.8756 31.9058 57.6369 35.8991C57.6232 36.2567 57.3231 36.5332 56.9617 36.5332Z" fill="#253E5E"/>
<path d="M49.8551 52.1087C49.7528 52.1087 49.6574 52.0884 49.5687 52.048C49.5687 52.048 49.5687 52.048 49.5619 52.048L33.8419 45.3834C33.6782 45.3159 33.5418 45.181 33.4736 45.0123C33.4054 44.8437 33.4123 44.6616 33.4805 44.4929C35.2264 40.4591 38.4113 37.2414 42.4419 35.4201C42.7829 35.265 43.1921 35.4134 43.3489 35.7574C43.5058 36.0947 43.3557 36.4994 43.0079 36.6546C39.4888 38.2398 36.6722 40.9785 35.015 44.4187L49.8551 50.7124L64.8113 44.7965C63.1268 41.0594 60.1192 38.1251 56.2932 36.5062C54.7246 35.8384 53.0741 35.4201 51.3896 35.265C51.0145 35.2313 50.7417 34.9007 50.7758 34.5297C50.8099 34.1587 51.1373 33.8754 51.5192 33.9226C53.3402 34.098 55.127 34.55 56.832 35.2717C61.2035 37.1268 64.5862 40.5535 66.3458 44.9247C66.4822 45.2687 66.3185 45.6599 65.9639 45.8016L50.1007 52.075C50.0256 52.0952 49.9438 52.1087 49.8551 52.1087Z" fill="#20AEEA"/>
<path d="M49.0854 45.9635C48.649 45.9635 48.2261 45.815 47.8715 45.5385L43.6158 42.132C42.6065 41.2618 42.0268 40.0274 42.02 38.7255C42.0063 37.0323 42.3132 34.4825 42.6065 32.0203L42.7838 30.5093C42.8861 29.6054 42.7634 29.4368 42.6406 29.2682C42.5724 29.1737 42.511 29.086 42.4564 28.9848C42.2859 28.6543 42.4155 28.2496 42.7497 28.0742C43.0839 27.9056 43.4931 28.0337 43.6704 28.3643C43.6909 28.4047 43.7182 28.4385 43.7454 28.4722C44.0455 28.8702 44.2978 29.3424 44.141 30.6645L43.9637 32.1823C43.684 34.4892 43.3703 37.1065 43.384 38.712C43.3908 39.6294 43.8 40.4995 44.4956 41.0999L48.7308 44.4929C48.949 44.6683 49.1809 44.6211 49.2696 44.5874C49.3583 44.5604 49.5697 44.4592 49.6379 44.1894L49.6856 43.987C49.7197 43.8588 49.7402 43.7104 49.747 43.562C49.7743 43.0763 49.6447 42.5907 49.3855 42.1792L46.7394 39.1707C46.5689 38.975 46.528 38.7052 46.6234 38.4691L47.3123 36.803C47.3941 36.6006 47.5714 36.4522 47.7896 36.3982C49.7947 35.9395 50.8859 34.84 51.2201 32.931C51.2814 32.5667 51.6293 32.3172 52.0112 32.3779C52.3795 32.4386 52.6318 32.7894 52.5704 33.1604C52.1681 35.4876 50.7836 36.9851 48.4512 37.6259L48.0488 38.5905L50.4494 41.3225C50.4699 41.3427 50.4835 41.3697 50.504 41.39C50.9473 42.0443 51.1587 42.8402 51.1178 43.6227C51.1041 43.8588 51.07 44.0882 51.0223 44.2973L50.9746 44.4997C50.8177 45.1405 50.3471 45.6464 49.7129 45.8555C49.5015 45.9297 49.2969 45.9635 49.0854 45.9635Z" fill="#253E5E"/>
<path d="M48.746 71.3471C46.3318 71.3471 43.9789 70.8682 41.7488 69.9171C39.3823 68.912 37.3158 67.4617 35.5972 65.5864C35.3449 65.3098 35.3653 64.8849 35.6449 64.6353C35.9245 64.3857 36.3542 64.4059 36.6065 64.6825C38.1888 66.4094 40.0983 67.7517 42.2875 68.6759C44.1494 69.4651 46.0999 69.9036 48.0981 69.9778V54.1999L33.408 47.967C32.3236 50.7866 32.0508 53.8154 32.6237 56.7834C32.6919 57.1477 32.4532 57.5052 32.0849 57.5727C31.7167 57.6401 31.3552 57.404 31.287 57.0397C30.6186 53.5928 31.0074 50.0581 32.4123 46.8135C32.4805 46.6516 32.6169 46.5167 32.7874 46.4492C32.9579 46.3817 33.142 46.3885 33.3125 46.4559L49.0529 53.1341C49.3053 53.242 49.469 53.4849 49.469 53.7547V70.6658C49.4553 71.057 49.128 71.3471 48.746 71.3471Z" fill="#20AEEA"/>
<path d="M35.6078 66.9352C35.4987 66.9352 35.3896 66.9082 35.2873 66.8542C34.9531 66.6788 34.8303 66.2741 35.0008 65.9435C36.5353 63.0834 34.7076 59.515 34.6871 59.4813C34.578 59.2722 34.5848 59.0226 34.7076 58.8202L36.624 55.697C36.9172 55.2181 36.9582 54.4154 36.7399 53.5924C36.6785 53.3698 36.5149 53.2147 36.2898 53.1674C36.1875 53.1472 35.9352 53.127 35.7374 53.3698L32.3206 57.8961C32.0956 58.1929 31.6659 58.2536 31.3658 58.031C31.0657 57.8084 31.0044 57.3834 31.2294 57.0866L34.6598 52.5469C35.1236 51.9667 35.8465 51.6969 36.5694 51.8453C37.2992 51.9937 37.872 52.5266 38.063 53.2416C38.3903 54.4424 38.2881 55.5891 37.797 56.3918L36.0716 59.2047C36.5558 60.284 37.7902 63.6231 36.2148 66.5709C36.092 66.807 35.8533 66.9352 35.6078 66.9352Z" fill="#253E5E"/>
<path d="M51.26 71.3472C50.8645 71.3337 50.5508 71.0571 50.5508 70.6726V53.7615C50.5508 53.4917 50.7145 53.2488 50.9668 53.1409L66.7072 46.4628C66.8777 46.3953 67.0619 46.3886 67.2324 46.456C67.4029 46.5235 67.5324 46.6516 67.6075 46.8203C69.0124 50.0582 69.4011 53.5928 68.7328 57.0466C68.6646 57.4108 68.3099 57.6469 67.9348 57.5795C67.5665 57.512 67.321 57.1545 67.396 56.7903C67.9689 53.829 67.6961 50.7934 66.6118 47.9738L51.9216 54.2067V69.9846C53.9198 69.9037 55.8703 69.4719 57.7322 68.6827C59.9146 67.7586 61.8242 66.4095 63.4132 64.6893C63.6655 64.4128 64.0952 64.3925 64.3748 64.6421C64.6544 64.8917 64.6749 65.3167 64.4225 65.5932C62.7039 67.4618 60.6375 68.9188 58.271 69.9239C56.0272 70.8683 53.6743 71.3472 51.26 71.3472Z" fill="#20AEEA"/>
<path d="M64.3877 66.9358C64.1422 66.9358 63.9035 66.8077 63.7876 66.5783C62.2122 63.6372 63.4466 60.2914 63.9308 59.2121L62.2054 56.3992C61.7143 55.5965 61.612 54.4498 61.9394 53.249C62.1303 52.534 62.7032 52.0011 63.433 51.8527C64.149 51.7043 64.8788 51.9741 65.3289 52.5408L68.5888 56.4937C68.8275 56.7837 68.7798 57.2087 68.4934 57.4448C68.2001 57.6809 67.7704 57.6337 67.5317 57.3503L64.265 53.384C64.0672 53.1344 63.808 53.1546 63.7057 53.1748C63.4807 53.2221 63.317 53.3772 63.2556 53.5998C63.0306 54.4228 63.0783 55.2255 63.3716 55.7044L65.288 58.8276C65.4107 59.03 65.4176 59.2796 65.3084 59.4887C65.288 59.5224 63.467 63.0908 64.9947 65.9509C65.172 66.2815 65.0425 66.6862 64.7083 66.8616C64.606 66.9088 64.4969 66.9358 64.3877 66.9358Z" fill="#253E5E"/>
</svg>
