<svg width="100" height="100" viewBox="0 0 100 100" fill="none" xmlns="http://www.w3.org/2000/svg">
<circle cx="50" cy="50" r="49.5" stroke="#253E5E"/>
<path d="M47.084 41.3472C46.6629 41.3472 46.3184 41.0039 46.3184 40.5844V35.0928C46.3184 33.6589 47.4897 32.4995 48.9214 32.4995C50.3531 32.4995 51.5245 33.6665 51.5245 35.0928V40.1344C51.5245 40.5539 51.18 40.8972 50.7589 40.8972C50.3378 40.8972 49.9933 40.5539 49.9933 40.1344V35.0928C49.9933 34.5055 49.511 34.025 48.9214 34.025C48.3319 34.025 47.8496 34.5055 47.8496 35.0928V40.5844C47.8496 41.0039 47.5051 41.3472 47.084 41.3472Z" fill="#20AEEA"/>
<path d="M36.053 72.4813C35.6319 72.4813 35.2874 72.138 35.2874 71.7185V58.9581C32.5925 57.4098 31 54.6792 31 51.5749V40.8891C31 39.2874 32.3092 37.9907 33.9093 37.9907C35.5094 37.9907 36.8186 39.295 36.8186 40.8891V45.9689C39.9194 46.3502 42.331 48.9893 42.331 52.1775C42.331 52.597 41.9865 52.9402 41.5654 52.9402C41.1443 52.9402 40.7998 52.597 40.7998 52.1775C40.7998 49.5689 38.6714 47.4485 36.053 47.4485C35.6319 47.4485 35.2874 47.1053 35.2874 46.6858V40.8891C35.2874 40.134 34.6673 39.5162 33.9093 39.5162C33.1514 39.5162 32.5312 40.134 32.5312 40.8891V51.5749C32.5312 54.2902 33.9399 56.5708 36.4052 57.8293C36.6579 57.9589 36.8186 58.2259 36.8186 58.5081V71.7185C36.8186 72.138 36.4741 72.4813 36.053 72.4813Z" fill="#20AEEA"/>
<path d="M43.4115 40.7367C42.9904 40.7367 42.6458 40.3935 42.6458 39.974V29.5933C42.6458 29.006 42.1635 28.5255 41.574 28.5255C40.9845 28.5255 40.5021 29.006 40.5021 29.5933V39.974C40.5021 40.3935 40.1576 40.7367 39.7365 40.7367C39.3154 40.7367 38.9709 40.3935 38.9709 39.974V29.5933C38.9709 28.1593 40.1423 27 41.574 27C43.0057 27 44.1771 28.167 44.1771 29.5933V39.974C44.1771 40.3935 43.8325 40.7367 43.4115 40.7367Z" fill="#20AEEA"/>
<path d="M47.087 41.957C46.6659 41.957 46.3214 41.6137 46.3214 41.1942V32.6441C46.3214 32.0568 45.8391 31.5762 45.2496 31.5762C44.66 31.5762 44.1777 32.0568 44.1777 32.6441V41.1942C44.1777 41.6137 43.8332 41.957 43.4121 41.957C42.991 41.957 42.6465 41.6137 42.6465 41.1942V32.6441C42.6465 31.2101 43.8179 30.0508 45.2496 30.0508C46.6813 30.0508 47.8526 31.2178 47.8526 32.6441V41.1942C47.8526 41.6137 47.5081 41.957 47.087 41.957Z" fill="#20AEEA"/>
<path d="M36.0527 43.7875C35.6316 43.7875 35.2871 43.4443 35.2871 43.0248V32.6441C35.2871 31.2101 36.4585 30.0508 37.8902 30.0508C39.3219 30.0508 40.4933 31.2178 40.4933 32.6441V41.1942C40.4933 41.6137 40.1487 41.957 39.7277 41.957C39.3066 41.957 38.962 41.6137 38.962 41.1942V32.6441C38.962 32.0568 38.4797 31.5762 37.8902 31.5762C37.3007 31.5762 36.8183 32.0568 36.8183 32.6441V43.0248C36.8183 43.4519 36.4738 43.7875 36.0527 43.7875Z" fill="#20AEEA"/>
<path d="M59.289 72.9851C58.8679 72.9851 58.5234 72.6419 58.5234 72.2224V69.2249C58.5234 69.0418 58.5923 68.8588 58.7148 68.7215L58.9828 68.4164C59.0134 68.3783 59.0517 68.3478 59.09 68.3173C59.7943 67.7757 60.2767 67.0054 60.782 66.1969C60.9581 65.9147 61.1342 65.6325 61.3256 65.3579L67.3586 55.0916C67.6112 54.6644 67.3969 54.0771 66.8839 53.7797C66.3709 53.4822 65.7585 53.589 65.5058 54.0085L63.1936 57.9518C63.0176 58.2492 62.6654 58.3942 62.3285 58.3026C61.9916 58.2111 61.762 57.906 61.762 57.5628L61.8155 44.7337C61.8155 44.4362 61.1571 43.9328 60.4528 43.9328C59.825 43.9328 59.2354 44.3295 59.113 44.6269V54.0924C59.113 54.5119 58.7684 54.8551 58.3473 54.8551C57.9262 54.8551 57.5588 54.5119 57.5588 54.0924V44.7413C57.5588 44.6422 57.5664 44.5507 57.5817 44.4591V42.3921C57.5817 42.0031 57.0688 41.6675 56.4869 41.6675C55.905 41.6675 55.3921 42.0108 55.3921 42.3921V54.1076C55.3921 54.1992 55.3768 54.2907 55.3461 54.3746C55.216 54.7178 54.8485 54.9466 54.4887 54.8856C54.1212 54.8246 53.8532 54.5271 53.8455 54.161L53.8149 44.36C53.8149 44.032 53.1029 43.4218 52.4368 43.4218C51.855 43.4218 51.342 43.7651 51.342 44.154V49.3711L51.3956 54.1076C51.3956 54.3136 51.319 54.5042 51.1736 54.6492C51.0281 54.7941 50.8367 54.878 50.63 54.878C50.2089 54.878 49.8108 54.5348 49.8108 54.1153L49.7878 47.2126C49.7878 46.8083 49.1064 46.0609 48.5092 46.0609C47.8814 46.0609 47.1465 46.8007 47.1465 47.1821L47.1694 63.3214C47.1618 65.1901 47.8508 66.8986 49.1217 68.1266C49.1523 68.1571 49.183 68.1876 49.2059 68.2181L49.3667 68.4317C49.4663 68.5613 49.5122 68.7215 49.5122 68.8817V72.2377C49.5122 72.6572 49.1677 73.0004 48.7466 73.0004C48.3255 73.0004 47.981 72.6572 47.981 72.2377V69.141C46.4574 67.6308 45.6229 65.5638 45.6382 63.3138L45.6152 47.1821C45.6152 45.8931 47.1005 44.5278 48.5092 44.5278C48.9763 44.5278 49.4203 44.6651 49.8184 44.8939V44.1464C49.8184 42.9032 50.9975 41.8887 52.4445 41.8887C52.9421 41.8887 53.4398 42.0337 53.8762 42.2625C53.9527 41.0802 55.1011 40.1421 56.4946 40.1421C57.9416 40.1421 59.1206 41.1565 59.1206 42.3921V42.7125C59.5417 42.5218 60.0087 42.415 60.4604 42.415C61.8309 42.415 63.3544 43.4142 63.3544 44.7413L63.3161 54.7407L64.1966 53.2458C64.8703 52.094 66.4322 51.7508 67.6648 52.4678C68.9051 53.1924 69.3645 54.7178 68.6907 55.8619L62.6348 66.174C62.4357 66.4715 62.2673 66.7384 62.0988 67.0054C61.5553 67.8749 60.9887 68.7749 60.1082 69.4766L60.0776 69.5147V72.2224C60.0546 72.6495 59.7101 72.9851 59.289 72.9851Z" fill="#253E5E"/>
</svg>
