<svg width="101" height="100" viewBox="0 0 101 100" fill="none" xmlns="http://www.w3.org/2000/svg">
<circle cx="50.0018" cy="50" r="49.5" stroke="#253E5E"/>
<path d="M50.0324 66.7952C40.7146 66.7952 33.1288 59.2036 33.1288 49.8788C33.1288 40.554 40.7146 32.9624 50.0324 32.9624C59.3502 32.9624 66.936 40.554 66.936 49.8788C66.9706 59.2036 59.3848 66.7952 50.0324 66.7952ZM50.0324 34.3144C41.442 34.3144 34.4797 41.3166 34.4797 49.8788C34.4797 58.4756 41.4767 65.4432 50.0324 65.4432C58.6228 65.4432 65.5851 58.441 65.5851 49.8788C65.6198 41.2819 58.6228 34.3144 50.0324 34.3144Z" fill="#20AEEA"/>
<path d="M50.8255 50.0867C50.6523 50.0867 50.4791 50.0174 50.3405 49.8787C50.0634 49.6014 50.0634 49.1854 50.3405 48.9428L71.6432 27.624C71.9203 27.3467 72.336 27.3467 72.5785 27.624C72.8556 27.9013 72.8556 28.3173 72.5785 28.5599L51.2758 49.8787C51.1718 50.0174 50.9987 50.0867 50.8255 50.0867Z" fill="#253E5E"/>
<path d="M54.3241 49.1164H51.1027V45.9272L49.7518 47.2791V50.503H52.9386L54.3241 49.1164Z" fill="#253E5E"/>
<path d="M72.0274 34.3143H66.5545C66.1735 34.3143 65.8964 34.0023 65.8964 33.6556V28.1786C65.8964 27.7973 66.2081 27.52 66.5545 27.52C66.9355 27.52 67.2126 27.832 67.2126 28.1786V32.9971H72.0274C72.4084 32.9971 72.6855 33.309 72.6855 33.6556C72.6855 34.0023 72.4084 34.3143 72.0274 34.3143Z" fill="#253E5E"/>
<path d="M50.0331 73C45.3915 73 40.9231 71.6134 37.0783 69.0136C35.5195 67.939 34.0647 66.691 32.8177 65.2698C29.0768 61.0407 27.0331 55.633 27.0331 50.0173C27.0331 37.33 37.3554 27 50.0331 27C62.7108 27 73.0331 37.33 73.0331 50.0173C73.0331 55.633 70.9894 61.0407 67.2831 65.2351C66.0361 66.6564 64.5813 67.939 63.0225 69.0136C59.2123 71.6134 54.7093 73 50.0331 73ZM50.0331 28.2826C38.0828 28.2826 28.384 38.0233 28.384 49.948C28.384 55.2517 30.3237 60.3474 33.8222 64.3338C34.9999 65.6858 36.3509 66.8643 37.8403 67.8696C41.4427 70.3308 45.6686 71.6134 50.0331 71.6134C54.4322 71.6134 58.6581 70.2962 62.2605 67.835C63.7153 66.8297 65.0662 65.6164 66.2786 64.2645C69.7771 60.3127 71.6822 55.217 71.6822 49.948C71.7168 38.0233 61.9834 28.2826 50.0331 28.2826Z" fill="#253E5E"/>
</svg>
