<svg width="40" height="40" viewBox="0 0 40 40" fill="none" xmlns="http://www.w3.org/2000/svg">
<circle cx="20" cy="20" r="19.5" stroke="#20AEEA"/>
<path d="M26.8028 17.2293C25.9747 13.6234 22.7961 12 20.0039 12C20.0039 12 20.0039 12 19.9961 12C17.2118 12 14.0253 13.6156 13.1972 17.2215C12.2743 21.2488 14.7667 24.6595 17.0225 26.8059C17.8586 27.6019 18.9313 28 20.0039 28C21.0766 28 22.1493 27.6019 22.9775 26.8059C25.2333 24.6595 27.7257 21.2566 26.8028 17.2293ZM20.0039 21.1395C18.6315 21.1395 17.5194 20.039 17.5194 18.681C17.5194 17.3229 18.6315 16.2224 20.0039 16.2224C21.3763 16.2224 22.4885 17.3229 22.4885 18.681C22.4885 20.039 21.3763 21.1395 20.0039 21.1395Z" fill="white"/>
</svg>
