<svg width="40" height="40" viewBox="0 0 40 40" fill="none" xmlns="http://www.w3.org/2000/svg">
<circle cx="20" cy="20" r="19.5" stroke="#20AEEA"/>
<path d="M28 22.1981V28H24.5561V22.5519C24.5561 21.2075 24.0538 20.2877 22.8341 20.2877C21.9013 20.2877 21.3274 20.9245 21.1121 21.4906C21.0404 21.7028 20.9686 21.9858 20.9686 22.3396V28H17.5247C17.5247 28 17.5964 18.8019 17.5247 17.8821H20.9686V19.2972C21.3991 18.5896 22.2601 17.5991 24.0538 17.5991C26.278 17.5991 28 19.0849 28 22.1981ZM13.9372 13C12.7892 13 12 13.7783 12 14.7689C12 15.7594 12.7175 16.5377 13.8655 16.5377C15.0852 16.5377 15.8027 15.7594 15.8027 14.7689C15.8744 13.7075 15.1569 13 13.9372 13ZM12.2152 28H15.6592V17.8821H12.2152V28Z" fill="white"/>
</svg>
