<svg width="20" height="20" viewBox="0 0 20 20" fill="none" xmlns="http://www.w3.org/2000/svg">
<path d="M11.5837 2.15684L13.1969 5.40981C13.4168 5.86264 14.0034 6.29698 14.4984 6.38016L17.4222 6.86995C19.292 7.18416 19.732 8.55188 18.3846 9.90113L16.1115 12.193C15.7266 12.5811 15.5158 13.3297 15.6349 13.8657L16.2857 16.7028C16.799 18.9485 15.6166 19.8171 13.646 18.6435L10.9054 17.0078C10.4105 16.712 9.59476 16.712 9.09065 17.0078L6.35012 18.6435C4.38867 19.8171 3.19713 18.9392 3.71041 16.7028L4.36117 13.8657C4.48033 13.3297 4.26952 12.5811 3.88456 12.193L1.61148 9.90113C0.273291 8.55188 0.704077 7.18416 2.57387 6.86995L5.49771 6.38016C5.98349 6.29698 6.57009 5.86264 6.79007 5.40981L8.40323 2.15684C9.28313 0.391731 10.713 0.391731 11.5837 2.15684Z" fill="#20AEEA"/>
</svg>
