<svg width="100" height="100" viewBox="0 0 100 100" fill="none" xmlns="http://www.w3.org/2000/svg">
<circle cx="50" cy="50" r="49.5" stroke="#20AEEA"/>
<path d="M50.24 48.305C50.09 48.29 49.91 48.29 49.745 48.305C46.175 48.185 43.34 45.26 43.34 41.66C43.34 37.985 46.31 35 50 35C53.675 35 56.66 37.985 56.66 41.66C56.645 45.26 53.81 48.185 50.24 48.305Z" stroke="white" stroke-linecap="round" stroke-linejoin="round"/>
<path d="M42.74 53.84C39.11 56.27 39.11 60.23 42.74 62.645C46.865 65.405 53.63 65.405 57.755 62.645C61.385 60.215 61.385 56.255 57.755 53.84C53.645 51.095 46.88 51.095 42.74 53.84Z" stroke="white" stroke-linecap="round" stroke-linejoin="round"/>
</svg>
