<svg width="100" height="100" viewBox="0 0 100 100" fill="none" xmlns="http://www.w3.org/2000/svg">
<circle cx="50" cy="50" r="49.5" stroke="#20AEEA"/>
<path d="M60.5 45.5C60.5 47.675 59.855 49.67 58.745 51.335C57.125 53.735 54.56 55.43 51.575 55.865C51.065 55.955 50.54 56 50 56C49.46 56 48.935 55.955 48.425 55.865C45.44 55.43 42.875 53.735 41.255 51.335C40.145 49.67 39.5 47.675 39.5 45.5C39.5 39.695 44.195 35 50 35C55.805 35 60.5 39.695 60.5 45.5Z" stroke="white" stroke-linecap="round" stroke-linejoin="round"/>
<path d="M63.8746 59.7051L61.3996 60.2901C60.8446 60.4251 60.4096 60.8451 60.2896 61.4001L59.7646 63.6051C59.4796 64.8051 57.9496 65.1651 57.1546 64.2201L49.9996 56.0001L42.8446 64.2351C42.0496 65.1801 40.5196 64.8201 40.2346 63.6201L39.7096 61.4151C39.5746 60.8601 39.1396 60.4251 38.5996 60.3051L36.1246 59.7201C34.9846 59.4501 34.5796 58.0251 35.4046 57.2001L41.2546 51.3501C42.8746 53.7501 45.4396 55.4451 48.4246 55.8801C48.9346 55.9701 49.4596 56.0151 49.9996 56.0151C50.5396 56.0151 51.0646 55.9701 51.5746 55.8801C54.5596 55.4451 57.1246 53.7501 58.7446 51.3501L64.5946 57.2001C65.4196 58.0101 65.0146 59.4351 63.8746 59.7051Z" stroke="white" stroke-linecap="round" stroke-linejoin="round"/>
<path d="M50.8709 40.97L51.7559 42.74C51.8759 42.98 52.1909 43.22 52.4759 43.265L54.0809 43.535C55.1009 43.7 55.3409 44.45 54.6059 45.185L53.3609 46.43C53.1509 46.64 53.0309 47.045 53.1059 47.345L53.4659 48.89C53.7509 50.105 53.1059 50.585 52.0259 49.94L50.5259 49.055C50.2559 48.89 49.8059 48.89 49.5359 49.055L48.0359 49.94C46.9559 50.57 46.3109 50.105 46.5959 48.89L46.9559 47.345C47.0159 47.06 46.9109 46.64 46.7009 46.43L45.4559 45.185C44.7209 44.45 44.9609 43.715 45.9809 43.535L47.5859 43.265C47.8559 43.22 48.1709 42.98 48.2909 42.74L49.1759 40.97C49.6109 40.01 50.3909 40.01 50.8709 40.97Z" stroke="white" stroke-linecap="round" stroke-linejoin="round"/>
</svg>
