<svg width="30" height="30" viewBox="0 0 30 30" fill="none" xmlns="http://www.w3.org/2000/svg">
<path d="M17.3755 3.23575L19.7952 8.1152C20.1252 8.79445 21.0051 9.44596 21.7475 9.57072L26.1333 10.3054C28.938 10.7767 29.5979 12.8283 27.5769 14.8522L24.1672 18.29C23.5898 18.8722 23.2736 19.995 23.4523 20.799L24.4285 25.0547C25.1984 28.4232 23.4248 29.7262 20.4689 27.9657L16.3581 25.5121C15.6157 25.0685 14.3921 25.0685 13.6359 25.5121L9.52512 27.9657C6.58294 29.7262 4.79564 28.4093 5.56556 25.0547L6.5417 20.799C6.72043 19.995 6.40421 18.8722 5.82678 18.29L2.41715 14.8522C0.409875 12.8283 1.05605 10.7767 3.86074 10.3054L8.24651 9.57072C8.97518 9.44596 9.85508 8.79445 10.185 8.1152L12.6048 3.23575C13.9246 0.588085 16.0694 0.588085 17.3755 3.23575Z" fill="#E1E1E1"/>
</svg>
